<?xml version="1.0" encoding="utf-8"?>
<!-- Generator: Adobe Illustrator 13.0.1, SVG Export Plug-In  -->
<!DOCTYPE svg PUBLIC "-//W3C//DTD SVG 1.1//EN" "http://www.w3.org/Graphics/SVG/1.1/DTD/svg11.dtd" [
	<!ENTITY ns_flows "http://ns.adobe.com/Flows/1.0/">
]>
<svg version="1.1"
	 xmlns="http://www.w3.org/2000/svg" xmlns:xlink="http://www.w3.org/1999/xlink" xmlns:a="http://ns.adobe.com/AdobeSVGViewerExtensions/3.0/"
	 x="0px" y="0px" width="415px" height="222px" viewBox="76.987 50.224 415 222" enable-background="new 76.987 50.224 415 222"
	 xml:space="preserve">
<defs>
</defs>
<rect fill="none" width="581.864" height="341.173"/>
<linearGradient id="SVGID_1_" gradientUnits="userSpaceOnUse" x1="-617.7349" y1="-694.3916" x2="-436.1633" y2="-415.7232" gradientTransform="matrix(0.2772 0 0 0.2772 254.8452 265.2307)">
	<stop  offset="0.0337" style="stop-color:#C6CF21"/>
	<stop  offset="0.2149" style="stop-color:#B2C427"/>
	<stop  offset="0.5713" style="stop-color:#80A830"/>
	<stop  offset="0.8" style="stop-color:#5D9732"/>
</linearGradient>
<path fill="url(#SVGID_1_)" d="M128.308,51.042C125.295,89.254,78.12,86.66,77.457,123.05c-0.099,5.331,2.135,12.727,8.17,18.731
	c1.961,2.007,4.292,3.68,6.878,4.997c-1.591,8.126-2.214,17.433-1.104,28.229l5.744-0.307c-2.097-9.949-2.3-18.674-1.276-26.412
	C119.938,157.277,157.571,136.538,128.308,51.042z"/>
<radialGradient id="SVGID_2_" cx="2372.2793" cy="-9670.084" r="2850.3818" gradientTransform="matrix(0.0508 0 0 0.0508 -60.5905 525.2507)" gradientUnits="userSpaceOnUse">
	<stop  offset="0.191" style="stop-color:#C9D647"/>
	<stop  offset="0.2319" style="stop-color:#BED044"/>
	<stop  offset="0.4714" style="stop-color:#88B039"/>
	<stop  offset="0.6589" style="stop-color:#699D34"/>
	<stop  offset="0.77" style="stop-color:#5D9732"/>
</radialGradient>
<path fill="url(#SVGID_2_)" d="M97.935,129.184c-3.887-6.143-7.958-18.095-7.729-26.395v-0.013
	c1.67,7.132,5.468,16.664,9.182,23.117c2.968-6.159,6.446-11.663,9.97-17.025c-3.938-5.923-4.947-15.657-4.874-17.567
	c0-0.031,0.024-0.031,0.058-0.051c1.04,3.391,2.989,9.186,6.592,14.938c3.36-5.046,6.629-10.005,9.36-15.327
	c-1.748-3.642-2.934-9.32-2.803-11.15l0,0c0.746,2.496,2.793,5.773,4.451,7.794c3.593-7.183,5.444-13.116,6.231-16.909
	c0.911-5.915,0.995-12.351-0.064-19.554C125.295,89.254,78.12,86.66,77.457,123.05c-0.099,5.331,2.135,12.727,8.17,18.731
	c1.961,2.007,4.292,3.68,6.878,4.997C93.774,140.188,95.699,134.353,97.935,129.184z"/>
<radialGradient id="SVGID_3_" cx="2921.8076" cy="-9670.3379" r="2850.4219" gradientTransform="matrix(0.0508 0 0 0.0508 -51.7575 525.2448)" gradientUnits="userSpaceOnUse">
	<stop  offset="0" style="stop-color:#DBE6F5"/>
	<stop  offset="0.1345" style="stop-color:#D8E3F4"/>
	<stop  offset="0.2545" style="stop-color:#CDDCF1"/>
	<stop  offset="0.3691" style="stop-color:#BBD0EC"/>
	<stop  offset="0.4803" style="stop-color:#A1C1E6"/>
	<stop  offset="0.5891" style="stop-color:#81AEDD"/>
	<stop  offset="0.696" style="stop-color:#589BD4"/>
	<stop  offset="0.7995" style="stop-color:#0088CA"/>
	<stop  offset="0.8854" style="stop-color:#0079C1"/>
</radialGradient>
<path fill="url(#SVGID_3_)" d="M165.112,51.042c-2.989,38.212-50.204,35.618-50.86,72.008c-0.084,5.331,2.159,12.727,8.166,18.731
	C142.919,162.283,199.063,150.306,165.112,51.042z"/>
<radialGradient id="SVGID_4_" cx="2922.6025" cy="-9669.6133" r="2850.5574" gradientTransform="matrix(0.0508 0 0 0.0508 -51.7428 525.2575)" gradientUnits="userSpaceOnUse">
	<stop  offset="0" style="stop-color:#FFFFFF"/>
	<stop  offset="0.0059" style="stop-color:#F8FAFD"/>
	<stop  offset="0.0568" style="stop-color:#DDE6F1"/>
	<stop  offset="0.1131" style="stop-color:#C8D7E9"/>
	<stop  offset="0.1766" style="stop-color:#BACEE4"/>
	<stop  offset="0.2538" style="stop-color:#B2C9E1"/>
	<stop  offset="0.382" style="stop-color:#AFC7E0"/>
	<stop  offset="0.457" style="stop-color:#8CB3D9"/>
	<stop  offset="0.6229" style="stop-color:#3990CB"/>
	<stop  offset="0.7413" style="stop-color:#007EC4"/>
	<stop  offset="0.8" style="stop-color:#0079C1"/>
</radialGradient>
<path fill="url(#SVGID_4_)" d="M114.252,123.05c-0.084,5.331,2.159,12.727,8.166,18.731c0.715,0.716,1.462,1.372,2.269,2.017
	c10.36-8.429,17.233-25.763,13.042-55.31C125.846,96.926,114.576,105.39,114.252,123.05z"/>
<radialGradient id="SVGID_5_" cx="3478.6279" cy="-9670.3379" r="2850.3965" gradientTransform="matrix(0.0508 0 0 0.0508 -42.8087 525.2448)" gradientUnits="userSpaceOnUse">
	<stop  offset="0.1354" style="stop-color:#FFF200"/>
	<stop  offset="0.2133" style="stop-color:#FFDE00"/>
	<stop  offset="0.2961" style="stop-color:#FFD300"/>
	<stop  offset="0.3869" style="stop-color:#FFCC04"/>
	<stop  offset="0.5" style="stop-color:#FFC907"/>
	<stop  offset="0.5749" style="stop-color:#FEBE10"/>
	<stop  offset="0.8253" style="stop-color:#F99B1C"/>
	<stop  offset="0.95" style="stop-color:#F78F1E"/>
</radialGradient>
<path fill="url(#SVGID_5_)" d="M202.32,51.042c-2.989,38.212-50.192,35.618-50.817,72.008c-0.107,5.331,2.125,12.727,8.148,18.731
	C180.129,162.283,236.288,150.306,202.32,51.042z"/>
<radialGradient id="SVGID_6_" cx="3478.627" cy="-9670.2305" r="2850.3411" gradientTransform="matrix(0.0508 0 0 0.0508 -42.8087 525.2448)" gradientUnits="userSpaceOnUse">
	<stop  offset="0" style="stop-color:#FDE92B"/>
	<stop  offset="0.0532" style="stop-color:#FBD928"/>
	<stop  offset="0.1215" style="stop-color:#F7CA25"/>
	<stop  offset="0.1992" style="stop-color:#F6C123"/>
	<stop  offset="0.2934" style="stop-color:#F5BB21"/>
	<stop  offset="0.45" style="stop-color:#F5B922"/>
	<stop  offset="0.5452" style="stop-color:#F4A620"/>
	<stop  offset="0.6489" style="stop-color:#F6991F"/>
	<stop  offset="0.7512" style="stop-color:#F7911F"/>
	<stop  offset="0.85" style="stop-color:#F78F1E"/>
</radialGradient>
<path fill="url(#SVGID_6_)" d="M151.503,123.05c-0.107,5.331,2.125,12.727,8.148,18.731c0.635,0.651,1.317,1.281,2.037,1.845
	c10.234-8.462,16.979-25.688,12.883-54.86C162.827,97.121,151.784,105.571,151.503,123.05z"/>
<path fill="#5D9732" d="M313.636,197.494c3.119-0.934,8.523-3.602,8.523-10.785c0-5.596-4.479-11.262-12.979-11.262h-18.201v40.924
	h8.434c0,0,0-33.928,0-35.355c1.229,0,6.639,0,6.639,0c6.395,0,7.357,3.803,7.357,6.068c0,3.781-2.742,6.152-7.088,6.152
	c-2.846,0-4.471,1.096-4.471,2.973c0,1.059,0.668,2.404,3.795,2.895c3.863,0.6,5.389,4.379,7.379,9.131c0,0,1.705,4.025,2.299,5.324
	c0.578,1.293,1.107,2.813,4.039,2.813h6.572l-2.904-6.242C320.136,203.71,317.81,199.902,313.636,197.494z"/>
<path fill="#5D9732" d="M230.739,197.494c3.097-0.934,8.476-3.602,8.476-10.785c0-5.596-4.423-11.262-12.93-11.262h-18.201v40.924
	h8.418c0,0,0-33.928,0-35.355c1.236,0,6.648,0,6.648,0c6.377,0,7.319,3.803,7.319,6.068c0,3.781-2.698,6.152-7.075,6.152
	c-2.83,0-4.464,1.096-4.464,2.973c0,1.059,0.683,2.404,3.803,2.895c3.862,0.6,5.423,4.379,7.397,9.131c0,0,1.696,4.025,2.283,5.324
	c0.584,1.293,1.111,2.813,4.022,2.813h6.589l-2.915-6.242C237.224,203.71,234.916,199.902,230.739,197.494z"/>
<rect x="114.844" y="175.464" fill="#5D9732" width="8.426" height="40.906"/>
<path fill="#5D9732" d="M180.074,198.029c1.379,0,19.703,0,19.703,0v-5.566c0,0-18.324,0-19.703,0c0-1.232,0-10.211,0-11.447
	c1.379,0,20.705,0,20.705,0v-5.551h-29.133v40.906h29.562v-5.566c0,0-19.745,0-21.134,0
	C180.074,209.544,180.074,199.314,180.074,198.029z"/>
<path fill="#5D9732" d="M264.032,175.464h-16.567v40.906h15.372c15.077,0,23.372-7.248,23.372-20.379
	C286.209,183.324,277.699,175.464,264.032,175.464z M255.876,181.015c1.202,0,6.761,0,6.761,0c9.457,0,14.836,5.434,14.836,14.885
	c0,9.33-5.508,14.904-14.73,14.904c0,0-5.626,0-6.866,0C255.876,210.74,255.876,182.435,255.876,181.015z"/>
<path fill="#5D9732" d="M348.179,174.873c-15.148,0-21.92,10.586-21.92,21.027c0,10.492,6.771,21.047,21.92,21.047
	c15,0,21.828-10.898,21.828-21.047C370.007,185.458,363.276,174.873,348.179,174.873z M348.179,210.31
	c-8.395,0-13.18-5.26-13.18-14.41c0-9.141,4.785-14.385,13.18-14.385c8.33,0,13.09,5.244,13.09,14.385
	C361.269,205.05,356.509,210.31,348.179,210.31z"/>
<path fill="#5D9732" d="M156.149,194.128c2.973-1.268,7.062-3.967,7.062-9.311c0-4.666-4.079-9.354-13.164-9.354h-17.546v40.906
	h19.884c12.751,0,14.125-8.045,14.125-11.508C166.51,197.705,160.139,195.064,156.149,194.128z M140.939,181.015
	c1.217,0,6.832,0,6.832,0c4.934,0,6.694,2.719,6.694,5.225c0,2.844-2.086,5.883-6.694,5.883c-2.854,0-4.471,1.016-4.471,2.779
	c0,0.836,0.432,2.754,4.413,2.77l1.976,0.02c4.468,0,7.774,2.785,7.774,6.605c0,5.785-4.964,6.508-9.239,6.508c0,0-6.06,0-7.285,0
	C140.939,210.74,140.939,182.435,140.939,181.015z"/>
<path fill="#5D9732" d="M423.054,175.464h-9.225l-16.547,40.906h0.053h8.865c0,0,2.916-7.705,3.219-8.566c0.982,0,18.354,0,19.266,0
	c0.324,0.787,2.404,5.762,2.404,5.762c0.553,1.311,1.172,2.805,4.008,2.805h6.143L423.054,175.464z M411.735,201.689
	c0.422-1.117,5.727-15.135,6.775-17.977c1.168,2.754,6.85,16.254,7.582,17.977C424.239,201.689,413.505,201.689,411.735,201.689z"/>
<path fill="#5D9732" d="M383.56,210.804c0-1.439,0-35.34,0-35.34h-8.424v40.906h21.225l0.033-5.566
	C396.394,210.804,384.325,210.804,383.56,210.804z"/>
<path fill="#87B435" d="M137.499,252.587c3.099-0.936,8.476-3.604,8.476-10.785c0-5.6-4.42-11.264-12.927-11.264h-18.204v40.924
	h8.418c0,0,0-33.926,0-35.355c1.236,0,6.648,0,6.648,0c6.377,0,7.322,3.803,7.322,6.068c0,3.779-2.698,6.152-7.078,6.152
	c-2.827,0-4.464,1.096-4.464,2.971c0,1.059,0.683,2.404,3.805,2.895c3.86,0.604,5.421,4.381,7.396,9.135c0,0,1.698,4.021,2.283,5.32
	c0.584,1.297,1.111,2.814,4.024,2.814h6.589l-2.917-6.242C143.983,258.8,141.677,254.992,137.499,252.587z"/>
<path fill="#87B435" d="M162.436,253.121c1.381,0,19.705,0,19.705,0v-5.564c0,0-18.324,0-19.705,0c0-1.236,0-10.215,0-11.449
	c1.381,0,20.707,0,20.707,0v-5.553h-29.135v40.908h29.563v-5.568c0,0-19.745,0-21.136,0
	C162.436,264.636,162.436,254.408,162.436,253.121z"/>
<path fill="#87B435" d="M255.271,229.962c-15.148,0-21.919,10.59-21.919,21.031c0,10.488,6.771,21.045,21.919,21.045
	c15,0,21.825-10.896,21.825-21.045C277.096,240.552,270.366,229.962,255.271,229.962z M255.271,265.4
	c-8.397,0-13.183-5.258-13.183-14.406c0-9.143,4.785-14.385,13.183-14.385c8.33,0,13.09,5.242,13.09,14.385
	C268.36,260.142,263.601,265.4,255.271,265.4z"/>
<path fill="#87B435" d="M384.665,249.218c2.973-1.268,7.063-3.965,7.063-9.309c0-4.668-4.08-9.355-13.166-9.355h-17.547v40.908
	h19.887c12.75,0,14.125-8.045,14.125-11.51C395.026,252.794,388.655,250.154,384.665,249.218z M369.452,236.107
	c1.217,0,6.834,0,6.834,0c4.936,0,6.695,2.721,6.695,5.223c0,2.846-2.084,5.885-6.695,5.885c-2.854,0-4.469,1.016-4.469,2.777
	c0,0.84,0.432,2.758,4.41,2.771l1.977,0.018c4.469,0,7.775,2.785,7.775,6.605c0,5.787-4.963,6.508-9.238,6.508c0,0-6.063,0-7.289,0
	C369.452,265.83,369.452,237.527,369.452,236.107z"/>
<path fill="#87B435" d="M338.95,230.554h-9.225l-16.543,40.908h0.049h8.865c0,0,2.918-7.703,3.219-8.564c0.982,0,18.354,0,19.266,0
	c0.324,0.787,2.404,5.758,2.404,5.758c0.553,1.311,1.172,2.807,4.008,2.807h6.143L338.95,230.554z M327.632,256.779
	c0.422-1.115,5.727-15.133,6.775-17.977c1.17,2.754,6.85,16.254,7.582,17.977C340.136,256.779,329.399,256.779,327.632,256.779z"/>
<path fill="#87B435" d="M312.757,230.554c-2.836,0-3.453,1.496-4.006,2.805c0,0-10.432,27.1-11.602,29.854
	c-1.049-2.844-12.799-32.658-12.799-32.658h-9.352h0.437l16.544,40.908h10.203l16.721-40.908H312.757z"/>
<path fill="#87B435" d="M408.8,265.894c0-1.438,0-35.34,0-35.34h-8.426v40.908h22.666l0.033-5.568
	C423.073,265.894,409.563,265.894,408.8,265.894z"/>
<path fill="#87B435" d="M435.843,253.119c1.379,0,19.705,0,19.705,0v-5.563c0,0-18.326,0-19.705,0c0-1.238,0-10.215,0-11.451
	c1.379,0,20.707,0,20.707,0v-5.551h-29.133v40.908h29.563v-5.568c0,0-19.748,0-21.137,0
	C435.843,264.634,435.843,254.408,435.843,253.119z"/>
<path fill="#87B435" d="M462.149,269.169l0.342-5.934c3.969,1.809,8.832,2.869,11.393,2.791c2.385-0.07,8.869,0.109,8.545-5.484
	c-0.41-7.088-20.195-5.719-20.195-18.469c0-8.834,9.248-11.916,16.727-11.916c2.818,0,6.865,0.742,9.5,1.566l-0.164,2.809
	c0,1.594-1.494,2.557-3.035,2.244c-2.141-0.434-4.361-0.604-6.238-0.533c-2.432,0.09-8.244,0.457-7.955,4.789
	c0.422,6.324,20.527,5.307,20.527,19.447c0,8.563-8.414,11.74-17.377,11.74C471.011,272.22,465.882,271.144,462.149,269.169z"/>
<path fill="#87B435" d="M220.665,230.554v27.986l-22.425-27.986h-8.857v40.908h8.417v-29.914c0,0,17.961,23.412,22.35,28.789
	c0.557,0.627,1.408,1.09,2.906,1.125c2.056,0,6.055,0,6.055,0v-40.908H220.665z"/>
</svg>
